<svg xmlns="http://www.w3.org/2000/svg" viewBox="0 0 512 512" fill="#FF6B00" opacity="0.9">
  <path d="M256 512c141.4 0 256-114.6 256-256S397.4 0 256 0S0 114.6 0 256S114.6 512 256 512zM385.6 228.8l-25.6-112c-2.7-12-13.2-20.8-25.6-20.8h-64V160h63.5l23 101.2H153.5l23-101.2H240V96H170.6c-12.4 0-22.9 8.8-25.6 20.8l-25.6 112c-1.3 5.8 0 11.8 3.6 16.5s9.1 7.5 15 7.5h228.6c5.9 0 11.4-2.8 15-7.5s4.9-10.7 3.6-16.5zM156.4 320L177.8 400H334.2l21.4-80H156.4zm-16.2-16h232c6.1 0 11.6-3.4 14.3-8.8s2.1-11.9-1.3-17.2l-96-144c-3.2-4.8-8.6-7.7-14.3-7.7s-11.2 2.9-14.3 7.7l-96 144c-3.4 5.3-4 11.8-1.3 17.2s8.3 8.8 14.3 8.8h232.4l0 .4c0 0-58.6 0-130.4 0s-115.2-.4-115.2-.4zM256 169L297.9 232H214.1L256 169z"/>
</svg> 