<svg xmlns="http://www.w3.org/2000/svg" viewBox="0 0 512 512" fill="#FF6B00" opacity="0.9">
  <path d="M256 0C114.6 0 0 114.6 0 256s114.6 256 256 256c20.8 0 41-2.5 60.4-7.2c-11.4-24.3-18-51.1-19.9-79.2c-5.7-4.7-10.8-10-15.3-15.8c-11.3-14.6-17.6-32.3-17.6-50.8c0-44.2 41.4-80 92.5-80s92.5 35.8 92.5 80c0 18.5-6.3 36.2-17.6 50.8c-4.5 5.8-9.6 11.1-15.3 15.8c-1.9 28.1-8.5 54.9-19.9 79.2C427 509.5 447.2 512 468 512c141.4 0 256-114.6 256-256S609.4 0 468 0C378.8 0 300.3 41.5 256 103.6zM468 448c-106 0-192-86-192-192s86-192 192-192s192 86 192 192s-86 192-192 192z"/>
  <path d="M144.4 336c-14.9 0-28.5 4.1-40.4 11.3l-80-40c27.6-38.6 67.7-68.8 113.6-85.6L68.9 152.4c-16.7-33.4-26.9-70.4-26.9-109.1C42 19.8 59.8 0 82.3 0c22.5 0 40.3 19.8 40.3 43.3c0 25.2-11.9 47.5-30 62.2l68.7 69.3c35.9-10.7 74.4-16.5 114.6-16.5c40.2 0 78.7 5.8 114.6 16.5l68.7-69.3c-18.1-14.7-30-37-30-62.2c0-23.5 17.8-43.3 40.3-43.3c22.5 0 40.3 19.8 40.3 43.3c0 38.7-10.2 75.7-26.9 109.1l-31.3 69.3c45.9 16.8 86 47 113.6 85.6l-80 40c-11.9-7.2-25.5-11.3-40.4-11.3c-48.9 0-88.7 39.8-88.7 88.7c0 48.9 39.8 88.7 88.7 88.7s88.7-39.8 88.7-88.7c0-14.9-4.1-28.5-11.3-40.4l40-80c38.6 27.6 68.8 67.7 85.6 113.6l-69.3 31.3c-7.2-11.9-11.3-25.5-11.3-40.4c0-48.9-39.8-88.7-88.7-88.7c-48.9 0-88.7 39.8-88.7 88.7c0 14.9 4.1 28.5 11.3 40.4l-40 80c-16.8-45.9-47-86-85.6-113.6l69.3-31.3c7.2 11.9 11.3 25.5 11.3 40.4c0 48.9 39.8 88.7 88.7 88.7s88.7-39.8 88.7-88.7c0-48.9-39.8-88.7-88.7-88.7z"/>
</svg> 